<?xml version="1.0" encoding="utf-8"?>
<!-- Generator: Adobe Illustrator 16.0.0, SVG Export Plug-In . SVG Version: 6.00 Build 0)  -->
<!DOCTYPE svg PUBLIC "-//W3C//DTD SVG 1.1//EN" "http://www.w3.org/Graphics/SVG/1.1/DTD/svg11.dtd">
<svg version="1.1" id="레이어_1" xmlns="http://www.w3.org/2000/svg" xmlns:xlink="http://www.w3.org/1999/xlink" x="0px"
	 y="0px" width="33.008px" height="30.859px" viewBox="0 0 33.008 30.859" enable-background="new 0 0 33.008 30.859"
	 xml:space="preserve">
<path fill="none" stroke="#39200D" stroke-miterlimit="10" d="M7.792,11.216"/>
<polygon fill="#F5D330" points="11.447,3.073 3.208,10.44 3.208,21.394 11.447,28.663 22.4,28.663 30.543,21.297 30.543,10.343 
	22.4,3.073 "/>
<ellipse fill="#39200D" stroke="#39200D" stroke-miterlimit="10" cx="17.292" cy="17.904" rx="8.918" ry="5.137"/>
<circle fill="#F5D330" cx="23.558" cy="15.48" r="0.547"/>
<ellipse fill="#39200D" stroke="#39200D" stroke-miterlimit="10" cx="8.277" cy="17.869" rx="1.26" ry="1.229"/>
<rect x="10.895" y="12.174" fill="#F5D330" width="2.095" height="11.097"/>
<rect x="14.934" y="11.128" fill="#F5D330" width="1.941" height="13.754"/>
<rect x="19.191" y="11.216" fill="#F5D330" width="2.617" height="12.595"/>
<path fill="none" stroke="#39200D" stroke-miterlimit="10" d="M16.507,11.958c0,0,1.164-4.265-0.678-5.137
	C15.829,6.821,13.696,7.984,16.507,11.958z"/>
<path fill="none" stroke="#39200D" stroke-miterlimit="10" d="M15.091,12.43c0,0-1.72-4.3-4.204-4.151
	C10.887,8.279,11.705,12.371,15.091,12.43z"/>
<path fill="none" stroke="#39200D" stroke-miterlimit="10" d="M8.374,18.289c0,3.05,4.045,5.522,9.034,5.522
	s9.289-2.482,9.034-5.522c-0.377-4.504-3.915-5.183-9.034-5.522C12.43,12.437,8.374,15.239,8.374,18.289z"/>
</svg>
